<svg width="36" height="36" viewBox="0 0 36 36" fill="none" xmlns="http://www.w3.org/2000/svg">
    <path opacity=".3" fill-rule="evenodd" clip-rule="evenodd" d="M28.667 16c0 5.88-4.787 10.667-10.667 10.667S7.333 21.88 7.333 16 12.12 5.333 18 5.333 28.667 10.12 28.667 16zm-5.334 0-8-6v12l8-6z" fill="#000"/>
    <g filter="url(#tn57cm9f9a)">
        <path fill-rule="evenodd" clip-rule="evenodd" d="M18 29.333c7.36 0 13.333-5.973 13.333-13.333S25.36 2.667 18 2.667 4.667 8.64 4.667 16 10.64 29.333 18 29.333zm0-24c5.88 0 10.667 4.787 10.667 10.667S23.88 26.667 18 26.667 7.333 21.88 7.333 16 12.12 5.333 18 5.333zM23.333 16l-8 6V10l8 6z" fill="#fff"/>
    </g>
    <defs>
        <filter id="tn57cm9f9a" x=".667" y=".667" width="34.667" height="34.667" filterUnits="userSpaceOnUse" color-interpolation-filters="sRGB">
            <feFlood flood-opacity="0" result="BackgroundImageFix"/>
            <feColorMatrix in="SourceAlpha" values="0 0 0 0 0 0 0 0 0 0 0 0 0 0 0 0 0 0 127 0" result="hardAlpha"/>
            <feOffset dy="2"/>
            <feGaussianBlur stdDeviation="2"/>
            <feColorMatrix values="0 0 0 0 0 0 0 0 0 0 0 0 0 0 0 0 0 0 0.5 0"/>
            <feBlend in2="BackgroundImageFix" result="effect1_dropShadow_0_75"/>
            <feBlend in="SourceGraphic" in2="effect1_dropShadow_0_75" result="shape"/>
        </filter>
    </defs>
</svg>
